<svg xmlns="http://www.w3.org/2000/svg" viewBox="0 0 171.38 108.16"><defs><style>.cls-1,.cls-5{fill:none;stroke:#2b3575;stroke-linecap:round;stroke-miterlimit:10;}.cls-1{stroke-width:4.43px;}.cls-2{fill:#fff;}.cls-3{fill:#ee589f;}.cls-4{fill:#2b3575;}.cls-5{stroke-width:6.65px;}</style></defs><g id="Layer_2" data-name="Layer 2"><g id="type"><line class="cls-1" x1="87.2" y1="37.56" x2="87.2" y2="2.22"/><line class="cls-1" x1="144.17" y1="64.99" x2="169.16" y2="39.99"/><line class="cls-1" x1="27.21" y1="64.03" x2="2.22" y2="39.04"/><line class="cls-1" x1="52.38" y1="43.44" x2="34.71" y2="12.82"/><line class="cls-1" x1="118.33" y1="46.5" x2="136" y2="15.89"/><path class="cls-2" d="M149.9,73.6a74.14,74.14,0,0,1-125.38,0,74.14,74.14,0,0,1,125.38,0Z"/><circle class="cls-3" cx="87.21" cy="73.6" r="28.34"/><circle class="cls-4" cx="87.21" cy="73.6" r="17.66"/><path class="cls-5" d="M24.52,73.6a74.14,74.14,0,0,1,125.38,0"/><polygon class="cls-2" points="87.21 67.37 89.75 61.53 89.69 67.9 94.38 63.6 91.74 69.39 97.78 67.37 93.01 71.58 99.35 72.19 93.28 74.11 98.81 77.24 92.49 76.52 96.28 81.64 90.8 78.41 92.17 84.62 88.48 79.44 87.21 85.67 85.94 79.44 82.24 84.62 83.62 78.41 78.14 81.64 81.92 76.52 75.6 77.24 81.14 74.11 75.07 72.19 81.41 71.58 76.64 67.37 82.67 69.39 80.03 63.6 84.73 67.9 84.67 61.53 87.21 67.37"/></g></g></svg>